<svg width="360" height="360" viewBox="0 0 360 360" fill="none" xmlns="http://www.w3.org/2000/svg">
<g clip-path="url(#clip0_201_33)">
<rect width="360" height="360" fill="#CAD0E3"/>
<g filter="url(#filter0_b_201_33)">
<path fill-rule="evenodd" clip-rule="evenodd" d="M416 308C416.277 308 416.554 308.004 416.83 308.011C422.654 315.521 431.601 320.488 441.724 320.963C445.667 326.283 448 332.869 448 340V532C448 549.673 433.673 564 416 564H80C62.3269 564 48 549.673 48 532V340C48 324.546 58.9555 311.65 73.5239 308.656C79.6667 316.189 89.0215 321 99.5 321C110.279 321 119.87 315.909 125.997 308H158.957C165.085 315.909 174.675 321 185.455 321C196.234 321 205.824 315.909 211.952 308H244.912C251.04 315.909 260.63 321 271.409 321C282.189 321 291.779 315.909 297.907 308H330.867C336.995 315.909 346.585 321 357.364 321C368.144 321 377.734 315.909 383.862 308H416Z" fill="#E8E8E8"/>
</g>
<g filter="url(#filter1_b_201_33)">
<path fill-rule="evenodd" clip-rule="evenodd" d="M417.089 28.9819C416.728 28.994 416.365 29.0001 416 29.0001H385.607C379.529 20.5229 369.591 15 358.364 15C347.137 15 337.2 20.5229 331.122 29.0001H299.652C293.574 20.5229 283.637 15 272.41 15C261.182 15 251.245 20.5229 245.167 29.0001H213.698C207.619 20.5229 197.682 15 186.455 15C175.228 15 165.291 20.5229 159.212 29H127.743C121.664 20.5229 111.727 15 100.5 15C89.5479 15 79.8234 20.2555 73.7108 28.3822C59.0493 25.4603 48 12.5205 48 -2.99997L48 -195C48 -212.673 62.3269 -227 80 -227L416 -227C433.673 -227 448 -212.673 448 -195L448 -2.99994C448 3.69731 445.943 9.91403 442.425 15.0527C431.987 15.6343 422.825 20.9947 417.089 28.9819Z" fill="url(#paint0_linear_201_33)"/>
</g>
<g filter="url(#filter2_b_201_33)">
<path fill-rule="evenodd" clip-rule="evenodd" d="M416 52C416.625 52 417.247 52.0179 417.863 52.0533C423.485 59.2799 432.004 64.1421 441.675 64.8972C445.648 70.2287 448 76.8397 448 84V276C448 282.697 445.943 288.914 442.425 294.053C431.987 294.634 422.825 299.995 417.089 307.982C416.728 307.994 416.365 308 416 308H385.607C379.528 299.523 369.591 294 358.364 294C347.137 294 337.2 299.523 331.122 308H299.652C293.574 299.523 283.636 294 272.409 294C261.182 294 251.245 299.523 245.167 308H213.697C207.619 299.523 197.682 294 186.455 294C175.228 294 165.291 299.523 159.212 308H127.743C121.664 299.523 111.727 294 100.5 294C89.548 294 79.8236 299.256 73.711 307.382C59.0494 304.46 48 291.521 48 276V84C48 68.2409 59.3918 55.1424 74.3898 52.4902C80.5301 60.1186 89.945 65 100.5 65C111.279 65 120.87 59.9089 126.997 52H159.957C166.085 59.9089 175.675 65 186.455 65C197.234 65 206.824 59.9089 212.952 52H245.912C252.04 59.9089 261.63 65 272.409 65C283.189 65 292.779 59.9089 298.907 52H331.867C337.995 59.9089 347.585 65 358.364 65C369.144 65 378.734 59.9089 384.861 52H416Z" fill="url(#paint1_linear_201_33)"/>
</g>
<rect x="108" y="112" width="211" height="20" rx="10" fill="white"/>
<rect x="108" y="170" width="134" height="20" rx="10" fill="white"/>
</g>
<defs>
<filter id="filter0_b_201_33" x="44" y="304" width="408" height="264" filterUnits="userSpaceOnUse" color-interpolation-filters="sRGB">
<feFlood flood-opacity="0" result="BackgroundImageFix"/>
<feGaussianBlur in="BackgroundImageFix" stdDeviation="2"/>
<feComposite in2="SourceAlpha" operator="in" result="effect1_backgroundBlur_201_33"/>
<feBlend mode="normal" in="SourceGraphic" in2="effect1_backgroundBlur_201_33" result="shape"/>
</filter>
<filter id="filter1_b_201_33" x="44" y="-231" width="408" height="264" filterUnits="userSpaceOnUse" color-interpolation-filters="sRGB">
<feFlood flood-opacity="0" result="BackgroundImageFix"/>
<feGaussianBlur in="BackgroundImageFix" stdDeviation="2"/>
<feComposite in2="SourceAlpha" operator="in" result="effect1_backgroundBlur_201_33"/>
<feBlend mode="normal" in="SourceGraphic" in2="effect1_backgroundBlur_201_33" result="shape"/>
</filter>
<filter id="filter2_b_201_33" x="44" y="48" width="408" height="264" filterUnits="userSpaceOnUse" color-interpolation-filters="sRGB">
<feFlood flood-opacity="0" result="BackgroundImageFix"/>
<feGaussianBlur in="BackgroundImageFix" stdDeviation="2"/>
<feComposite in2="SourceAlpha" operator="in" result="effect1_backgroundBlur_201_33"/>
<feBlend mode="normal" in="SourceGraphic" in2="effect1_backgroundBlur_201_33" result="shape"/>
</filter>
<linearGradient id="paint0_linear_201_33" x1="48" y1="29" x2="303.5" y2="29" gradientUnits="userSpaceOnUse">
<stop stop-color="white"/>
<stop offset="1" stop-color="white" stop-opacity="0"/>
</linearGradient>
<linearGradient id="paint1_linear_201_33" x1="248" y1="52" x2="248" y2="308" gradientUnits="userSpaceOnUse">
<stop stop-color="#7856FF"/>
<stop offset="1" stop-color="#1D65F0" stop-opacity="0.5"/>
</linearGradient>
<clipPath id="clip0_201_33">
<rect width="360" height="360" fill="white"/>
</clipPath>
</defs>
</svg>
