<svg xmlns="http://www.w3.org/2000/svg" width="83" height="64" viewBox="0 0 83 64" fill="none">
  <path d="M53.875 19.5625H69.3438M53.875 31.9375H69.3438M53.875 44.3125H69.3438M10.5625 62.875H72.4375C74.899 62.875 77.2598 61.8972 79.0003 60.1566C80.7409 58.416 81.7188 56.0553 81.7188 53.5938V10.2812C81.7188 7.81971 80.7409 5.45899 79.0003 3.71842C77.2598 1.97784 74.899 1 72.4375 1H10.5625C8.10096 1 5.74024 1.97784 3.99967 3.71842C2.25909 5.45899 1.28125 7.81971 1.28125 10.2812V53.5938C1.28125 56.0553 2.25909 58.416 3.99967 60.1566C5.74024 61.8972 8.10096 62.875 10.5625 62.875ZM35.3125 21.1094C35.3125 22.1251 35.1124 23.1308 34.7238 24.0692C34.3351 25.0076 33.7654 25.8602 33.0472 26.5784C32.329 27.2966 31.4763 27.8663 30.5379 28.255C29.5996 28.6437 28.5938 28.8438 27.5781 28.8438C26.5624 28.8438 25.5567 28.6437 24.6183 28.255C23.6799 27.8663 22.8273 27.2966 22.1091 26.5784C21.3909 25.8602 20.8212 25.0076 20.4325 24.0692C20.0438 23.1308 19.8437 22.1251 19.8438 21.1094C19.8438 19.0581 20.6586 17.0908 22.1091 15.6403C23.5596 14.1899 25.5268 13.375 27.5781 13.375C29.6294 13.375 31.5967 14.1899 33.0472 15.6403C34.4976 17.0908 35.3125 19.0581 35.3125 21.1094ZM40.6502 47.2454C36.6255 49.3891 32.1341 50.507 27.574 50.5C23.0167 50.5057 18.5283 49.3878 14.506 47.2454C15.4889 44.5693 17.2695 42.2593 19.6072 40.6275C21.945 38.9957 24.7272 38.1207 27.5781 38.1207C30.429 38.1207 33.2113 38.9957 35.549 40.6275C37.8867 42.2593 39.6673 44.5693 40.6502 47.2454Z" stroke="black" stroke-width="1.5" stroke-linecap="round" stroke-linejoin="round"/>
</svg>
