<svg width="15" height="24" viewBox="0 0 15 24" fill="none" xmlns="http://www.w3.org/2000/svg">
<mask id="path-1-inside-1_8_1568" fill="white">
<path fill-rule="evenodd" clip-rule="evenodd" d="M14.9959 12.2235L7.49795 16.5773L0 12.2235L7.49795 0L14.9959 12.2235ZM15 13.6202L7.49798 24L3.62769e-05 13.6202L7.49798 17.9701L15 13.6202Z"/>
</mask>
<path d="M7.49795 16.5773L6.9958 17.4421L7.49795 17.7337L8.0001 17.4421L7.49795 16.5773ZM14.9959 12.2235L15.4981 13.0883L16.384 12.5738L15.8483 11.7006L14.9959 12.2235ZM0 12.2235L-0.85241 11.7006L-1.38806 12.5738L-0.502152 13.0883L0 12.2235ZM7.49795 0L8.35036 -0.522873L7.49795 -1.91251L6.64554 -0.522873L7.49795 0ZM7.49798 24L6.68736 24.5856L7.49777 25.7075L8.30846 24.5858L7.49798 24ZM15 13.6202L15.8105 14.206L14.4984 12.7551L15 13.6202ZM3.62769e-05 13.6202L0.501845 12.7552L-0.81059 14.2058L3.62769e-05 13.6202ZM7.49798 17.9701L6.99618 18.8351L7.49785 19.1261L7.99959 18.8352L7.49798 17.9701ZM8.0001 17.4421L15.4981 13.0883L14.4938 11.3587L6.9958 15.7125L8.0001 17.4421ZM-0.502152 13.0883L6.9958 17.4421L8.0001 15.7125L0.502152 11.3587L-0.502152 13.0883ZM6.64554 -0.522873L-0.85241 11.7006L0.85241 12.7464L8.35036 0.522873L6.64554 -0.522873ZM15.8483 11.7006L8.35036 -0.522873L6.64554 0.522873L14.1435 12.7464L15.8483 11.7006ZM8.30846 24.5858L15.8105 14.206L14.1895 13.0344L6.68751 23.4142L8.30846 24.5858ZM-0.81059 14.2058L6.68736 24.5856L8.30861 23.4145L0.810663 13.0347L-0.81059 14.2058ZM7.99979 17.1051L0.501845 12.7552L-0.501772 14.4852L6.99618 18.8351L7.99979 17.1051ZM14.4984 12.7551L6.99638 17.105L7.99959 18.8352L15.5016 14.4853L14.4984 12.7551Z" fill="white" mask="url(#path-1-inside-1_8_1568)"/>
</svg>
