<svg width="24" height="24" viewBox="0 0 24 24" fill="none" xmlns="http://www.w3.org/2000/svg" class="h-full w-full">
  <path opacity="0.28" d="M12.0001 1.8501C6.39441 1.8501 1.8501 6.39441 1.8501 12.0001C1.8501 17.6058 6.39441 22.1501 12.0001 22.1501C17.6058 22.1501 22.1501 17.6058 22.1501 12.0001C22.1501 6.39441 17.6058 1.8501 12.0001 1.8501Z" fill="#111111"/>
  <path fill-rule="evenodd" clip-rule="evenodd" d="M13.5722 9.22618L13.795 9.36943C14.2922 9.68901 14.7082 9.95643 15.0192 10.199C15.3367 10.4466 15.6336 10.7336 15.7987 11.1242C16.0353 11.6841 16.0353 12.3158 15.7987 12.8757C15.6336 13.2663 15.3367 13.5533 15.0192 13.8009C14.7082 14.0435 14.2922 14.3109 13.795 14.6305L13.5722 14.7737C12.9965 15.1438 12.5209 15.4496 12.1268 15.6547C11.7315 15.8604 11.3024 16.0298 10.8397 15.9967C10.1887 15.9502 9.58998 15.6234 9.19884 15.1009C8.92081 14.7295 8.83123 14.277 8.79054 13.8332C8.74998 13.3909 8.74999 12.8254 8.75 12.141V11.8589C8.74999 11.1745 8.74998 10.609 8.79054 10.1667C8.83123 9.7229 8.92081 9.27037 9.19884 8.899C9.58998 8.37654 10.1887 8.04966 10.8397 8.00317C11.3024 7.97012 11.7315 8.13947 12.1268 8.34521C12.5209 8.5503 12.9965 8.85609 13.5722 9.22618Z" fill="currentColor"/>
</svg>
