<svg width="193" height="200" viewBox="0 0 193 200" fill="none" xmlns="http://www.w3.org/2000/svg">
  <path d="M192.448 49.7545C183.328 30.7839 167.813 15.9575 148.309 7.5747C128.805 -0.808106 106.402 -2.2788 84.5753 3.39073C62.748 9.06025 42.7163 21.5531 27.5869 38.9318C12.4575 56.3105 3.07591 77.6037 0.897188 99.5091C-1.28153 121.414 3.86438 142.708 15.5368 160.086C27.2092 177.465 44.7559 189.958 65.4553 195.627C86.1547 201.297 108.85 199.826 130.022 191.443C151.193 183.061 169.658 168.234 182.551 149.264L133.559 119.411C128.401 126.999 121.016 132.93 112.547 136.283C104.078 139.636 95.0002 140.224 86.7204 137.956C78.4407 135.689 71.422 130.691 66.753 123.74C62.0841 116.788 60.0257 108.271 60.8972 99.5091C61.7687 90.7469 65.5213 82.2296 71.5731 75.2782C77.6248 68.3267 85.6375 63.3295 94.3684 61.0617C103.099 58.7939 112.06 59.3822 119.862 62.7353C127.664 66.0884 133.87 72.019 137.518 79.6072L192.448 49.7545Z" class="icon" />
  <style>
    .icon { fill: #000; }
    @media (prefers-color-scheme: dark) {
      .icon { fill: #fff; }
    }
  </style>
</svg>
