<svg width="213" height="212" viewBox="0 0 213 212" fill="none" xmlns="http://www.w3.org/2000/svg">
<path d="M106.75 53V106H146.5M186.25 106C186.25 116.44 184.194 126.778 180.198 136.423C176.203 146.069 170.347 154.833 162.965 162.215C155.583 169.597 146.819 175.453 137.173 179.448C127.528 183.444 117.19 185.5 106.75 185.5C96.3099 185.5 85.972 183.444 76.3267 179.448C66.6813 175.453 57.9173 169.597 50.535 162.215C43.1528 154.833 37.2968 146.069 33.3016 136.423C29.3063 126.778 27.25 116.44 27.25 106C27.25 84.9153 35.6259 64.6942 50.535 49.785C65.4441 34.8759 85.6653 26.5 106.75 26.5C127.835 26.5 148.056 34.8759 162.965 49.785C177.874 64.6942 186.25 84.9153 186.25 106Z" stroke="black" stroke-width="1.5" stroke-linecap="round" stroke-linejoin="round"/>
</svg>
