<svg
  width="410"
  height="410"
  viewBox="0 0 410 410"
  fill="none"
  xmlns="http://www.w3.org/2000/svg"
>
  <path
    fill-rule="evenodd"
    clip-rule="evenodd"
    d="M291.569 148.602C317.762 167.332 349.843 178.328 384.494 178.328V111.666C377.937 111.666 371.398 111.015 364.987 109.638V162.116C330.333 162.116 298.234 151.083 272.06 132.388V268.408C272.06 336.427 216.883 391.586 148.792 391.586C123.379 391.586 99.775 383.923 80.176 370.754C102.565 393.632 133.774 407.816 168.319 407.816C236.376 407.816 291.569 352.677 291.569 284.604V148.602ZM315.643 81.3632C302.256 66.7622 293.472 47.851 291.57 26.983V18.434H273.057C277.731 44.952 293.597 67.6312 315.643 81.3632ZM123.234 318.549C115.753 308.749 111.713 296.759 111.733 284.44C111.733 253.32 136.982 228.086 168.102 228.086C173.918 228.086 179.697 228.956 185.203 230.713V162.588C178.752 161.698 172.233 161.301 165.712 161.463V214.502C160.187 212.745 154.391 211.839 148.611 211.839C117.455 211.839 92.204 237.09 92.204 268.192C92.204 290.219 104.831 309.276 123.234 318.549Z"
    fill="#ED2153"
  />
  <path
    fill-rule="evenodd"
    clip-rule="evenodd"
    d="M272.06 132.388C298.233 151.082 330.333 162.116 364.987 162.116V109.638C345.658 105.508 328.505 95.4192 315.643 81.3632C293.597 67.6312 277.731 44.952 273.057 18.434H224.495V284.604C224.385 315.651 199.188 340.795 168.103 340.795C149.81 340.795 133.542 332.063 123.235 318.55C104.832 309.277 92.2062 290.219 92.2062 268.192C92.2062 237.09 117.439 211.839 148.613 211.839C154.556 211.839 160.315 212.781 165.714 214.502V161.463C98.8351 162.84 45.0552 217.436 45.0552 284.605C45.0552 318.151 58.4402 348.548 80.1782 370.755C99.7772 383.924 123.381 391.603 148.794 391.603C216.867 391.603 272.062 336.428 272.062 268.409V132.388H272.06Z"
    fill="white"
  />
  <path
    fill-rule="evenodd"
    clip-rule="evenodd"
    d="M364.987 109.638V95.472C347.54 95.49 330.443 90.5999 315.643 81.3619C328.74 95.7079 346.001 105.598 364.987 109.638ZM273.056 18.434C272.641 15.879 272.296 13.3441 272.06 10.7711V2.18396H204.983V268.408C204.873 299.438 179.696 324.563 148.611 324.563C139.445 324.563 130.86 322.407 123.234 318.549C133.541 332.062 149.808 340.794 168.102 340.794C199.187 340.794 224.384 315.651 224.494 284.603V18.433L273.056 18.434ZM165.712 161.462V146.338C160.097 145.578 154.463 145.196 148.792 145.214C80.7191 145.214 25.5061 200.373 25.5061 268.408C25.5061 311.05 47.2061 348.654 80.1761 370.754C58.4381 348.547 45.0531 318.15 45.0531 284.604C45.0541 217.435 98.8331 162.839 165.712 161.462Z"
    fill="#6AC8CF"
  />
</svg>
