<svg width="170" height="170" viewBox="0 0 170 170" fill="none" xmlns="http://www.w3.org/2000/svg">
  <path d="M162.604 46.0121C160.742 39.0433 155.254 33.5542 148.284 31.6917C135.652 28.3068 84.9994 28.3067 84.9994 28.3067C84.9994 28.3067 34.3472 28.3068 21.715 31.6917C14.7462 33.5542 9.25717 39.0433 7.39466 46.0121C4.00977 58.6444 4.00977 84.9995 4.00977 84.9995C4.00977 84.9995 4.00977 111.356 7.39466 123.988C9.25717 130.956 14.7462 136.445 21.715 138.307C34.3472 141.693 84.9994 141.693 84.9994 141.693C84.9994 141.693 135.652 141.693 148.284 138.307C155.254 136.445 160.742 130.956 162.604 123.988C165.99 111.356 165.99 84.9995 165.99 84.9995C165.99 84.9995 165.99 58.6444 162.604 46.0121Z" fill="#ED1D24"/>
  <path d="M68.8018 109.297L110.884 85.0002L68.8018 60.7027V109.297Z" fill="white"/>
</svg>
