<svg width="1152" height="576" viewBox="0 0 1152 576" fill="none" xmlns="http://www.w3.org/2000/svg">
<g clip-path="url(#clip0_3_622)">
<g clip-path="url(#clip1_3_622)">
<path d="M48 528H0V576H48V528Z" fill="#00D0FD"/>
<path d="M96 528V480H48V528V576H96V528Z" fill="#5B8BF5"/>
<path d="M288 384H240V432V480H192H144H96V528H144H192H240H288V480V432H336H384V384H336H288Z" fill="#FF3815"/>
<path d="M144 480V432V384H96H48V432V480H96H144Z" fill="#D500E6"/>
</g>
<path d="M0 0H50.7C91.5 0 120 28.5 120 71.4C120 116.7 92.4 144 49.5 144H0V0ZM46.2 124.8C81 124.8 98.1 106.8 98.1 71.4C98.1 39.3 81 18.9 47.4 18.9H20.4V124.8H46.2Z" fill="#0A0A0A"/>
<path d="M152.4 0H254.1V18.9H172.8V60H233.1V78.6H172.8V124.8H254.1V143.7H152.4V0Z" fill="#0A0A0A"/>
<path d="M274.2 0H297L326.4 94.8C330 106.2 330.9 114.9 331.5 127.2H340.2C340.5 116.4 342 106.8 345.6 95.1L375.3 0H397.8L351 143.7H320.7L274.2 0Z" fill="#0A0A0A"/>
<path d="M0 192.3H58.5C88.5 192.3 106.5 210.3 106.5 236.1C106.5 262.2 88.5 280.2 58.2 280.2H20.4V336H0V192.3ZM54.6 261.9C74.4 261.9 84.9 250.8 84.9 235.8C84.9 220.8 74.7 210.9 54.6 210.9H20.4V261.9H54.6Z" fill="#0A0A0A"/>
<path d="M133.2 192.3H194.7C223.8 192.3 241.2 209.1 241.2 231.3C241.2 242.4 237.6 250.5 230.4 255.6C223.2 260.7 214.5 263.4 204 264V272.7C224.7 273 232.5 280.2 236.7 300L243.6 336.3H221.1L215.1 302.1C212.1 283.8 202.8 276.9 183.3 276.9H153.6V336H133.2V192.3ZM191.7 258C208.8 258 219.6 249.9 219.6 234.3C219.6 218.7 208.8 210.9 191.7 210.9H153.9V258H191.7Z" fill="#0A0A0A"/>
<path d="M339 189.3C379.8 188.7 411.3 220.2 410.7 264C411.3 308.1 379.8 339.3 339 338.7C298.2 339.3 266.1 307.8 266.7 264C266.1 220.2 298.5 188.7 339 189.3ZM339 207.9C307.8 207.9 288.9 231.9 288.9 264C288.9 296.7 307.8 320.1 339 320.1C369.9 320.1 389.1 296.7 389.1 264C389.1 231.9 369.9 207.9 339 207.9Z" fill="#0A0A0A"/>
<path d="M471.9 211.2H421.2V192.3H545.1V211.2H492.6V336H472.2V211.2H471.9Z" fill="#0A0A0A"/>
<path d="M627.3 189.3C668.1 188.7 699.6 220.2 699 264C699.6 308.1 668.1 339.3 627.3 338.7C586.5 339.3 554.4 307.8 555 264C554.4 220.2 586.5 188.7 627.3 189.3ZM627 207.9C595.8 207.9 576.9 231.9 576.9 264C576.9 296.7 595.8 320.1 627 320.1C657.9 320.1 677.1 296.7 677.1 264C677.1 231.9 657.9 207.9 627 207.9Z" fill="#0A0A0A"/>
<path d="M793.5 189.3C828.6 189.3 850.5 210.3 856.5 231.9L836.1 239.4C833.4 231 828.6 223.8 822 217.5C815.4 211.2 806.1 207.9 793.5 207.9C764.4 207.9 744.9 228.6 744.9 262.5C744.9 297 764.4 319.8 793.5 319.8C818.4 319.8 830.4 307.2 837 287.4L856.8 294.9C849.9 319.5 827.7 338.7 793.5 338.7C749.7 339.3 722.4 305.1 723 262.8C722.4 221.4 752.7 188.4 793.5 189.3Z" fill="#0A0A0A"/>
<path d="M948.9 189.3C989.7 188.7 1021.2 220.2 1020.6 264C1021.2 308.1 989.7 339.3 948.9 338.7C908.1 339.3 876 307.8 876.6 264C876 220.2 908.4 188.7 948.9 189.3ZM948.9 207.9C917.7 207.9 898.8 231.9 898.8 264C898.8 296.7 917.7 320.1 948.9 320.1C979.8 320.1 999 296.7 999 264C999 231.9 979.8 207.9 948.9 207.9Z" fill="#0A0A0A"/>
<path d="M1053.9 192.3H1074.3V316.8H1152V336H1053.9V192.3Z" fill="#0A0A0A"/>
</g>
<defs>
<clipPath id="clip0_3_622">
<rect width="1152" height="576" fill="white"/>
</clipPath>
<clipPath id="clip1_3_622">
<rect width="384" height="192" fill="white" transform="translate(0 384)"/>
</clipPath>
</defs>
</svg>
