<svg width="22" height="19" viewBox="0 0 22 19" fill="none" xmlns="http://www.w3.org/2000/svg">
<path d="M7.69141 1.75H5.60341C5.12236 1.75009 4.654 1.90435 4.26705 2.19015C3.8801 2.47595 3.59494 2.87824 3.45341 3.338L1.04141 11.177C0.975343 11.3911 0.941638 11.6139 0.941406 11.838V16C0.941406 16.5967 1.17846 17.169 1.60042 17.591C2.02237 18.0129 2.59467 18.25 3.19141 18.25H18.1914C18.7881 18.25 19.3604 18.0129 19.7824 17.591C20.2044 17.169 20.4414 16.5967 20.4414 16V11.838C20.4414 11.614 20.4074 11.391 20.3414 11.177L17.9314 3.338C17.7899 2.87824 17.5047 2.47595 17.1178 2.19015C16.7308 1.90435 16.2625 1.75009 15.7814 1.75H13.6914M0.941406 11.5H4.80141C5.2192 11.5001 5.62872 11.6165 5.98408 11.8363C6.33944 12.056 6.6266 12.3703 6.81341 12.744L7.06941 13.256C7.25628 13.6299 7.54361 13.9443 7.89916 14.164C8.25471 14.3837 8.66444 14.5001 9.08241 14.5H12.3004C12.7184 14.5001 13.1281 14.3837 13.4837 14.164C13.8392 13.9443 14.1265 13.6299 14.3134 13.256L14.5694 12.744C14.7563 12.3701 15.0436 12.0557 15.3992 11.836C15.7547 11.6163 16.1644 11.4999 16.5824 11.5H20.4414M10.6914 1V9.25M10.6914 9.25L7.69141 6.25M10.6914 9.25L13.6914 6.25" stroke="white" stroke-width="1.5" stroke-linecap="round" stroke-linejoin="round"/>
</svg>
