<svg width="22" height="20" viewBox="0 0 22 20" fill="none" xmlns="http://www.w3.org/2000/svg">
<path d="M2.32422 1V12.25C2.32422 12.8467 2.56127 13.419 2.98323 13.841C3.40519 14.2629 3.97748 14.5 4.57422 14.5H6.82422M2.32422 1H0.824219M2.32422 1H18.8242M6.82422 14.5H14.3242M6.82422 14.5L5.82422 17.5M18.8242 1H20.3242M18.8242 1V12.25C18.8242 12.8467 18.5872 13.419 18.1652 13.841C17.7433 14.2629 17.171 14.5 16.5742 14.5H14.3242M14.3242 14.5L15.3242 17.5M5.82422 17.5H15.3242M5.82422 17.5L5.32422 19M15.3242 17.5L15.8242 19M6.07422 10L9.07422 7L11.2222 9.148C12.2314 7.69929 13.5464 6.48982 15.0742 5.605" stroke="white" stroke-width="1.5" stroke-linecap="round" stroke-linejoin="round"/>
</svg>
