    <svg width="25" height="24" viewBox="0 0 25 24" fill="none" xmlns="http://www.w3.org/2000/svg">
      <path fill-rule="evenodd" clip-rule="evenodd" d="M10.7282 14.1944C11.0847 13.9836 11.5447 14.1017 11.7555 14.4583L12.4343 15.6061C12.6675 15.994 12.993 16.3119 13.3907 16.538C13.7878 16.7639 14.2301 16.88 14.68 16.88H21.74C22.1542 16.88 22.49 17.2158 22.49 17.63C22.49 18.0442 22.1542 18.38 21.74 18.38H14.68C13.9698 18.38 13.2721 18.1961 12.6492 17.842C12.0276 17.4884 11.5136 16.987 11.1468 16.3759L11.1444 16.3717L10.4644 15.2218C10.2536 14.8652 10.3717 14.4053 10.7282 14.1944Z" fill="#3A4158" />
      <path fill-rule="evenodd" clip-rule="evenodd" d="M3 6.37002C3 5.95578 3.33578 5.62 3.75 5.62H4.10999C4.82011 5.62 5.51784 5.80385 6.14072 6.15804C6.76236 6.5115 7.27644 7.01298 7.6431 7.62414L8.31366 8.745C8.5263 9.10044 8.4105 9.561 8.05506 9.77364C7.69956 9.98628 7.23906 9.87048 7.02642 9.51504L6.35688 8.39586C6.35678 8.39574 6.35698 8.39604 6.35688 8.39586C6.1236 8.0073 5.79743 7.6884 5.39926 7.46196C5.00213 7.23612 4.55987 7.12002 4.10999 7.12002H3.75C3.33578 7.12002 3 6.7842 3 6.37002Z" fill="#3A4158" />
      <path fill-rule="evenodd" clip-rule="evenodd" d="M14.62 7.12002C14.1701 7.12002 13.7278 7.23612 13.3307 7.46196C12.9329 7.68816 12.6074 8.00616 12.3741 8.39424L12.3731 8.39586L7.6431 16.3759C7.27644 16.987 6.76236 17.4885 6.14072 17.842C5.51784 18.1961 4.82011 18.38 4.10999 18.38H3.75C3.33578 18.38 3 18.0442 3 17.63C3 17.2158 3.33578 16.88 3.75 16.88H4.10999C4.55987 16.88 5.00213 16.7639 5.39926 16.538C5.79704 16.3118 6.12266 15.9938 6.3559 15.6058L6.35688 15.6041L11.0869 7.62414C11.4536 7.01298 11.9676 6.51156 12.5893 6.15804C13.2121 5.80385 13.9099 5.62 14.62 5.62H21.68C22.0942 5.62 22.43 5.95578 22.43 6.37002C22.43 6.7842 22.0942 7.12002 21.68 7.12002H14.62Z" fill="#3A4158" />
      <path fill-rule="evenodd" clip-rule="evenodd" d="M17.8297 13.7197C18.1225 13.4268 18.5974 13.4268 18.8904 13.7197L22.2604 17.0897C22.401 17.2303 22.48 17.4211 22.48 17.62C22.48 17.8189 22.401 18.0097 22.2604 18.1503L18.8904 21.5203C18.5974 21.8132 18.1225 21.8132 17.8297 21.5203C17.5368 21.2274 17.5368 20.7526 17.8297 20.4596L20.6694 17.62L17.8297 14.7803C17.5368 14.4874 17.5368 14.0126 17.8297 13.7197Z" fill="#3A4158" />
      <path fill-rule="evenodd" clip-rule="evenodd" d="M17.8305 2.46889C18.1238 2.17643 18.5986 2.17713 18.8911 2.47045L22.2612 5.85046C22.5533 6.14346 22.5529 6.61776 22.2604 6.91032L18.8904 10.2803C18.5974 10.5732 18.1225 10.5732 17.8297 10.2803C17.5368 9.98742 17.5368 9.51258 17.8297 9.21966L20.6701 6.3792L17.8289 3.52955C17.5365 3.23622 17.5371 2.76134 17.8305 2.46889Z" fill="#3A4158" />
    </svg>