    <svg width="25" height="24" viewBox="0 0 25 24" fill="none" xmlns="http://www.w3.org/2000/svg">
      <path d="M16 10.5V6C16 5.00544 15.6049 4.05161 14.9016 3.34835C14.1984 2.64509 13.2445 2.25 12.25 2.25C11.2554 2.25 10.3016 2.64509 9.59833 3.34835C8.89507 4.05161 8.49998 5.00544 8.49998 6V10.5M19.856 8.507L21.119 20.507C21.189 21.172 20.669 21.75 20 21.75H4.49998C4.34219 21.7502 4.18613 21.7171 4.04193 21.6531C3.89774 21.589 3.76863 21.4953 3.66301 21.3781C3.55738 21.2608 3.4776 21.1227 3.42884 20.9726C3.38008 20.8226 3.36343 20.6639 3.37999 20.507L4.64399 8.507C4.67314 8.23056 4.80361 7.9747 5.01024 7.78876C5.21686 7.60281 5.48501 7.49995 5.76298 7.5H18.737C19.313 7.5 19.796 7.935 19.856 8.507ZM8.87498 10.5C8.87498 10.5995 8.83548 10.6948 8.76515 10.7652C8.69482 10.8355 8.59944 10.875 8.49998 10.875C8.40053 10.875 8.30515 10.8355 8.23482 10.7652C8.16449 10.6948 8.12498 10.5995 8.12498 10.5C8.12498 10.4005 8.16449 10.3052 8.23482 10.2348C8.30515 10.1645 8.40053 10.125 8.49998 10.125C8.59944 10.125 8.69482 10.1645 8.76515 10.2348C8.83548 10.3052 8.87498 10.4005 8.87498 10.5ZM16.375 10.5C16.375 10.5995 16.3355 10.6948 16.2652 10.7652C16.1948 10.8355 16.0994 10.875 16 10.875C15.9005 10.875 15.8051 10.8355 15.7348 10.7652C15.6645 10.6948 15.625 10.5995 15.625 10.5C15.625 10.4005 15.6645 10.3052 15.7348 10.2348C15.8051 10.1645 15.9005 10.125 16 10.125C16.0994 10.125 16.1948 10.1645 16.2652 10.2348C16.3355 10.3052 16.375 10.4005 16.375 10.5Z" stroke="#3A4158" stroke-width="1.5" stroke-linecap="round" stroke-linejoin="round" />
    </svg>